<svg xmlns="http://www.w3.org/2000/svg" viewBox="0 0 89.8 89.9"><defs><style>.cls-1{fill:#ff9100;}</style></defs><title>Jupiter Logo</title><g id="Layer_1" data-name="Layer 1"><path class="cls-1" d="M44.9,0A45,45,0,1,0,89.8,45,45,45,0,0,0,44.9,0ZM67.3,78.7c-34.4-.7-48.1-27-48.2-27.2a1.08,1.08,0,0,0-1.5-.5,1.14,1.14,0,0,0-.5,1.5c.1.3,3.7,7.3,11.9,14.4A58.75,58.75,0,0,0,63.8,80.8,39.12,39.12,0,0,1,55,84.2c-7.2,1.1-16.9,1.1-24-5.1a1.13,1.13,0,0,0-1.5,1.7,23.86,23.86,0,0,0,5.1,3.4A40.55,40.55,0,0,1,5,51.7,39.44,39.44,0,0,0,16.4,67.2a1.08,1.08,0,0,0,.7.3,1.22,1.22,0,0,0,.9-.4,1.13,1.13,0,0,0-.2-1.6C8.8,58.2,5.6,48.2,4.5,42.4a40.39,40.39,0,0,1,7.5-21C15.6,27,25.3,40.6,40,48.2c.4.2,10.6,4.8,17.3,4.9a18.35,18.35,0,0,1,12.4,6.2,1.23,1.23,0,0,0,.8.4.91.91,0,0,0,.7-.3,1.12,1.12,0,0,0,.1-1.6,20.48,20.48,0,0,0-14-6.9c-6.2-.1-16.3-4.7-16.4-4.7C26.3,38.6,16.4,24.3,13.4,19.5A40.16,40.16,0,0,1,36.5,5.4c3.1,3.9,12.1,14,24.1,18.1.1,0,.2.1.4.1a1,1,0,0,0,1-.7,1.08,1.08,0,0,0-.7-1.4C51,17.8,42.7,9.2,39.2,4.9A36.79,36.79,0,0,1,45,4.4,40.41,40.41,0,0,1,85.4,43.8c-6.7-.1-27.8-1.7-45.9-18.1A1.13,1.13,0,0,0,38,27.4C56.7,44.3,78.4,46,85.4,46.1A40.64,40.64,0,0,1,67.3,78.7Z"/><path class="cls-1" d="M66.5,68.2c-1.1,3.4-7.1,4.5-13.3,2.4S42.8,64.1,44,60.7s7.1-4.5,13.3-2.4S67.6,64.8,66.5,68.2Z"/></g></svg>